<?xml version="1.0" standalone="no"?>
<!DOCTYPE svg PUBLIC "-//W3C//DTD SVG 20010904//EN"
 "http://www.w3.org/TR/2001/REC-SVG-20010904/DTD/svg10.dtd">
<svg version="1.0" xmlns="http://www.w3.org/2000/svg"
 width="1034.000000pt" height="1034.000000pt" viewBox="0 0 1034.000000 1034.000000"
 preserveAspectRatio="xMidYMid meet">

<g transform="translate(0.000000,1034.000000) scale(0.100000,-0.100000)"
fill="#000000" stroke="none">
<path d="M6655 9641 c-3 -7 5 -46 20 -89 15 -42 42 -138 61 -212 19 -74 68
-218 109 -320 147 -371 146 -360 70 -805 -25 -148 -19 -212 31 -350 56 -150
175 -349 313 -518 112 -137 130 -162 151 -205 13 -25 25 -72 28 -108 9 -113
-44 -187 -181 -254 -26 -13 -73 -45 -105 -70 -71 -57 -89 -106 -72 -190 7 -30
21 -69 31 -86 10 -17 19 -34 19 -37 0 -2 -24 -16 -52 -31 -29 -14 -93 -60
-143 -102 -108 -91 -142 -109 -305 -163 -131 -43 -170 -63 -170 -86 0 -19 181
-188 265 -247 39 -28 103 -66 143 -86 39 -20 72 -40 72 -45 0 -5 -10 -23 -22
-40 -30 -41 -29 -120 2 -237 30 -114 25 -222 -13 -296 -53 -105 -182 -188
-362 -235 -79 -21 -111 -24 -265 -23 -190 1 -296 15 -716 94 -116 22 -287 51
-380 64 -198 28 -337 73 -555 179 -325 159 -513 336 -595 562 -27 74 -29 90
-29 220 1 125 4 150 29 229 15 49 45 127 67 174 43 93 40 128 -5 69 -92 -120
-186 -116 -417 16 -63 36 -138 78 -167 94 -85 47 -177 132 -231 213 -53 81
-173 338 -214 460 -48 140 -60 202 -60 305 0 121 18 172 86 232 50 43 160 83
227 83 126 -2 296 -78 425 -191 44 -39 68 -28 29 12 -45 47 -171 130 -243 160
-100 42 -185 55 -271 40 -127 -21 -212 -80 -259 -181 -22 -48 -25 -67 -24
-155 1 -160 50 -323 181 -599 76 -162 105 -208 176 -280 69 -70 104 -95 221
-159 55 -29 129 -71 165 -92 36 -20 89 -46 119 -56 60 -21 151 -25 183 -8 11
6 21 9 23 7 2 -2 -12 -50 -31 -106 -105 -315 -36 -586 208 -817 128 -122 307
-228 551 -324 59 -24 109 -47 112 -51 2 -4 -28 -10 -67 -14 -80 -7 -149 -34
-192 -74 -37 -35 -130 -178 -166 -256 -60 -130 -143 -364 -189 -536 -47 -174
-63 -237 -77 -304 -9 -39 -25 -111 -35 -161 -45 -207 -88 -454 -119 -675 -11
-85 -25 -184 -30 -220 -5 -36 -12 -110 -15 -165 -10 -165 -10 -165 -66 -45
-28 58 -62 132 -77 165 -273 616 -862 896 -1483 705 -142 -44 -326 -140 -269
-140 6 0 41 15 78 34 89 45 217 89 322 112 102 22 369 25 468 6 219 -44 418
-150 576 -307 131 -129 219 -272 351 -565 43 -97 76 -168 214 -464 36 -77 55
-106 62 -99 7 7 1 29 -22 74 -17 35 -56 118 -86 184 l-55 120 6 105 c10 165
36 394 47 405 16 16 188 -168 310 -330 85 -112 182 -258 246 -369 65 -112 199
-380 232 -465 22 -55 107 -262 186 -456 32 -77 131 -322 221 -544 90 -222 167
-408 172 -413 29 -29 12 30 -64 217 -47 116 -102 253 -123 305 -21 52 -69 169
-106 260 -37 91 -87 212 -110 270 -157 387 -181 443 -265 610 -131 264 -174
333 -349 575 -79 109 -114 149 -248 286 l-104 107 21 138 c49 325 152 819 221
1064 125 439 271 729 401 796 62 32 298 34 508 3 41 -6 143 -24 225 -39 796
-154 1020 -159 1290 -30 139 66 224 173 240 300 7 56 2 95 -34 250 -22 94 -18
136 20 184 18 23 27 26 82 26 128 0 200 97 148 198 -23 44 -104 116 -158 139
-18 7 -33 17 -33 21 0 4 34 25 76 47 82 43 165 122 189 180 19 45 19 105 -1
133 -8 12 -31 29 -51 37 -41 17 -56 34 -83 90 -26 54 -25 111 3 160 18 31 47
55 132 107 60 37 126 83 147 104 64 64 85 170 52 271 -18 54 -51 104 -173 254
-163 201 -279 402 -326 565 -32 111 -32 143 7 365 57 330 46 414 -96 748 -31
73 -70 188 -87 255 -31 124 -95 324 -109 339 -4 5 -11 4 -15 -2z m554 -3286
c102 -52 6 -224 -174 -310 l-79 -38 -96 11 c-52 7 -126 12 -165 13 -38 0 -88
3 -110 7 l-40 8 108 37 c157 55 183 69 298 164 144 119 196 141 258 108z
m-303 -370 c101 -23 220 -101 252 -167 21 -41 22 -52 12 -82 -54 -165 -326
-72 -622 213 -65 62 -59 65 125 58 92 -3 193 -13 233 -22z"/>
<path d="M6013 8556 c-165 -63 -559 -323 -531 -351 2 -3 69 18 149 46 307 109
493 169 519 169 14 0 44 -8 66 -19 224 -107 372 -165 449 -175 40 -5 56 -3 83
14 28 18 32 25 32 65 0 82 -51 143 -160 194 -118 55 -208 73 -385 77 -149 3
-164 2 -222 -20z m452 -35 c185 -46 285 -119 285 -210 0 -32 -22 -61 -48 -61
-60 0 -233 64 -442 164 -42 21 -90 36 -110 36 -34 0 -252 -69 -438 -139 -46
-17 -86 -31 -89 -31 -14 0 24 32 85 71 37 24 69 46 72 50 11 15 186 103 248
126 63 22 76 24 212 19 96 -3 172 -12 225 -25z"/>
<path d="M6414 8073 c23 -97 27 -124 21 -171 -4 -44 -28 -112 -38 -112 -2 0
-57 7 -122 15 -66 9 -186 18 -267 22 -172 7 -177 4 -107 -72 49 -54 134 -96
244 -121 120 -28 515 -25 515 4 0 4 -30 18 -67 31 -89 31 -160 67 -166 83 -2
7 5 30 15 52 11 21 22 63 25 92 6 56 -12 170 -29 192 -18 21 -31 13 -24 -15z
m-157 -297 c113 -12 124 -15 143 -39 11 -14 46 -38 78 -53 l57 -28 -55 -8
c-69 -10 -245 -1 -326 17 -33 8 -86 24 -118 35 -57 22 -126 72 -126 93 0 11
144 4 347 -17z"/>
<path d="M3275 7626 c-67 -16 -102 -41 -128 -90 -18 -35 -22 -57 -21 -146 0
-204 88 -443 214 -583 49 -55 123 -107 152 -107 30 0 20 18 -19 39 -46 24
-122 97 -163 157 -128 185 -197 516 -131 631 31 53 77 73 171 73 117 0 235
-54 288 -130 12 -18 22 -36 22 -40 0 -3 -33 -16 -72 -29 -127 -40 -142 -52
-182 -150 -43 -103 -45 -148 -11 -218 46 -92 167 -180 219 -160 24 9 19 27 -6
27 -68 1 -161 79 -193 163 -22 58 -17 101 24 190 25 53 38 71 64 81 62 28 152
61 162 61 6 0 12 -15 15 -33 7 -46 25 -35 24 15 -1 90 -101 194 -223 232 -89
28 -146 32 -206 17z"/>
<path d="M6721 7015 c-91 -104 -95 -208 -9 -280 29 -24 38 -27 93 -23 49 3 83
15 180 63 91 44 134 59 176 63 94 7 77 -14 -26 -33 -92 -16 -135 -38 -102 -51
9 -3 24 -1 34 4 10 5 52 15 93 22 93 15 112 25 108 53 -2 16 -15 26 -42 35
-52 17 -119 -1 -254 -67 -163 -81 -217 -83 -271 -15 -19 24 -22 38 -19 81 4
44 12 63 51 113 26 33 47 62 47 65 0 17 -32 0 -59 -30z"/>
<path d="M7964 4516 c-67 -30 -148 -155 -225 -350 -105 -264 -107 -267 -233
-269 -58 -1 -78 3 -109 22 -59 36 -81 74 -81 145 -1 78 35 147 117 228 79 80
221 148 306 148 45 0 73 16 52 29 -32 21 -188 -22 -280 -76 -74 -44 -154 -127
-194 -201 -71 -131 -32 -257 95 -312 44 -19 63 -21 120 -16 37 3 68 3 68 -1 0
-4 -10 -22 -22 -40 -22 -32 -25 -33 -63 -26 -81 16 -141 10 -169 -16 -37 -34
-35 -76 4 -96 16 -8 38 -15 49 -15 30 0 103 30 128 52 14 13 28 18 42 13 24
-7 151 -130 244 -237 37 -42 94 -95 128 -117 52 -35 69 -41 114 -41 39 0 56 5
70 20 22 24 12 39 -15 22 -61 -38 -150 4 -256 119 -128 139 -210 221 -236 237
-15 9 -29 21 -32 27 -2 6 12 37 32 68 28 44 55 69 113 106 122 78 224 187 295
316 32 58 38 80 42 144 4 67 1 79 -18 104 -24 30 -40 33 -86 13z m66 -35 c27
-52 1 -174 -54 -256 -36 -53 -109 -139 -151 -178 -50 -48 -125 -101 -132 -94
-7 8 103 280 148 365 48 91 85 140 124 164 38 23 52 23 65 -1z m-546 -711 c37
-14 32 -28 -16 -50 -52 -23 -91 -25 -108 -5 -36 43 53 82 124 55z"/>
<path d="M5673 4495 c-113 -35 -183 -109 -183 -194 0 -52 13 -77 84 -166 110
-137 131 -227 85 -351 -87 -231 -456 -282 -575 -79 -38 66 -44 157 -14 219 41
87 153 156 251 156 41 0 115 -29 139 -56 26 -27 40 -31 40 -10 0 25 -66 73
-120 86 -104 25 -243 -25 -304 -109 -45 -63 -59 -112 -54 -185 8 -99 55 -168
153 -227 36 -22 51 -24 155 -24 104 0 121 3 172 27 75 35 138 94 174 165 23
47 30 74 32 138 5 96 -18 157 -91 246 -100 122 -115 165 -83 227 58 111 257
160 346 85 57 -47 32 -136 -48 -175 -53 -25 -134 -21 -186 11 -40 25 -46 26
-46 6 0 -25 97 -65 156 -65 129 0 221 120 168 221 -31 61 -150 86 -251 54z"/>
<path d="M8440 4180 c-24 -24 -26 -77 -4 -108 19 -27 10 -61 -44 -166 -58
-113 -110 -160 -147 -132 -18 13 -21 43 -11 114 10 68 -4 67 -38 -2 -48 -98
-124 -146 -174 -109 -92 69 -3 253 123 253 41 0 75 -22 75 -48 0 -15 18 -25
30 -17 13 8 -14 59 -42 79 -12 9 -42 16 -66 16 -86 0 -158 -65 -183 -165 -10
-38 -9 -53 6 -90 32 -84 110 -96 184 -29 44 39 51 41 51 15 0 -24 45 -61 73
-61 22 0 127 102 127 123 0 6 6 18 13 26 8 9 24 44 37 79 12 34 25 62 29 62
10 -1 75 -64 94 -93 55 -84 -40 -202 -121 -150 -13 8 -31 12 -40 8 -15 -6 -14
-9 6 -25 80 -66 202 -3 202 104 0 50 -37 113 -91 159 -40 33 -42 35 -30 67 29
85 -7 142 -59 90z m40 -37 c0 -16 -4 -35 -10 -43 -8 -12 -10 -12 -16 3 -8 21
3 67 16 67 6 0 10 -12 10 -27z"/>
<path d="M6314 4132 c-13 -8 -34 -46 -34 -61 0 -6 9 -19 21 -30 l21 -19 -36
-94 c-50 -129 -100 -183 -147 -157 -19 10 -21 17 -16 67 3 32 8 67 12 80 14
44 -21 23 -45 -27 -34 -73 -91 -125 -136 -125 -50 0 -74 31 -74 93 1 95 75
174 160 169 38 -3 48 -8 65 -35 21 -33 52 -46 41 -17 -3 9 -6 19 -6 23 0 5
-12 20 -26 35 -22 21 -36 26 -76 26 -108 0 -188 -90 -188 -211 0 -45 4 -55 34
-85 23 -23 43 -34 64 -34 29 0 100 41 115 66 12 21 22 17 34 -16 6 -16 23 -35
38 -42 23 -10 32 -9 63 7 47 26 82 78 124 190 l35 90 62 3 c78 4 83 -7 48
-107 -15 -42 -27 -92 -27 -112 0 -40 30 -79 61 -79 30 0 74 26 97 57 l19 27
40 -42 c56 -59 99 -57 170 11 l32 30 10 -26 c14 -35 55 -61 86 -53 52 13 142
133 118 157 -9 9 -16 1 -32 -28 -19 -37 -82 -103 -99 -103 -5 0 -16 6 -26 13
-16 11 -18 23 -13 68 3 30 8 64 12 77 14 45 -21 23 -45 -29 -27 -56 -86 -115
-125 -125 -32 -8 -73 18 -81 52 -11 45 2 112 30 149 63 83 172 90 199 13 7
-19 22 -24 31 -10 9 15 -25 69 -50 81 -14 6 -43 11 -65 11 -77 0 -129 -45
-183 -160 -50 -109 -106 -159 -141 -130 -21 18 -18 56 10 140 43 128 33 150
-69 150 -53 0 -56 2 -56 24 0 50 -24 70 -56 48z m26 -52 c0 -21 -15 -27 -25
-10 -7 12 2 30 16 30 5 0 9 -9 9 -20z"/>
<path d="M9010 4108 c-25 -41 -25 -40 4 -67 l24 -22 -32 -76 c-65 -159 -187
-225 -281 -152 -38 31 -31 44 29 58 120 27 195 122 146 184 -31 39 -92 38
-147 -2 -75 -54 -111 -184 -67 -244 27 -37 93 -61 145 -53 97 16 154 72 205
202 l36 94 63 0 c35 0 66 -4 70 -9 3 -6 -8 -49 -25 -97 -37 -107 -38 -137 -5
-169 28 -29 45 -31 83 -11 47 24 102 100 102 141 0 29 -18 15 -43 -32 -25 -50
-80 -96 -106 -91 -35 7 -35 51 -2 152 42 129 35 142 -79 148 -43 3 -45 4 -50
38 -7 50 -42 54 -70 8z m40 -23 c0 -14 -4 -25 -10 -25 -11 0 -14 33 -3 43 11
11 13 8 13 -18z m-184 -63 c55 -37 -28 -132 -130 -149 -32 -5 -36 -3 -36 16 0
32 39 94 74 119 31 22 71 28 92 14z"/>
<path d="M6005 3272 c-5 -4 -12 -16 -13 -27 -5 -25 -158 -450 -177 -492 -9
-18 -20 -35 -26 -39 -17 -10 10 -24 46 -24 33 0 63 15 53 25 -4 4 -2 19 4 34
5 14 23 64 40 111 16 47 37 103 47 125 15 35 83 226 98 278 4 14 -1 17 -28 17
-19 0 -38 -4 -44 -8z"/>
<path d="M6160 3263 c0 -6 9 -18 19 -27 11 -10 22 -29 25 -42 16 -64 -50 -174
-104 -174 -35 0 -49 -17 -18 -22 27 -4 68 -62 68 -97 0 -79 -46 -146 -121
-180 l-44 -21 34 0 c50 0 158 55 182 93 30 50 25 109 -12 151 -16 19 -39 38
-50 41 -27 9 -24 24 9 31 82 20 132 73 132 142 0 33 -6 45 -35 71 -20 17 -40
31 -45 31 -4 0 -15 3 -24 6 -9 3 -16 2 -16 -3z"/>
<path d="M7689 3123 c-12 -3 -47 -66 -48 -86 0 -1 -20 -60 -45 -131 -58 -161
-59 -216 -6 -216 13 0 15 7 12 30 -4 26 77 275 99 305 11 16 22 105 13 104 -5
-1 -16 -3 -25 -6z"/>
<path d="M6475 3036 c-65 -29 -136 -122 -150 -198 -13 -68 36 -148 90 -148 14
0 12 6 -10 32 -25 29 -27 38 -22 86 3 30 13 62 21 71 9 10 13 20 10 23 -9 10
26 71 64 111 40 41 40 42 -3 23z"/>
<path d="M6570 3045 c0 -2 5 -15 11 -28 15 -34 -1 -61 -59 -98 -41 -27 -43
-29 -17 -24 67 15 96 28 115 52 25 33 25 58 0 83 -18 18 -50 28 -50 15z"/>
<path d="M6983 3033 c-14 -9 -23 -26 -23 -41 0 -25 -39 -142 -64 -190 -14 -28
-11 -77 7 -99 5 -7 20 -13 33 -13 22 0 23 2 12 20 -11 18 -6 42 39 171 29 83
50 155 47 160 -8 13 -26 10 -51 -8z"/>
<path d="M7202 3043 c-6 -2 -10 -8 -7 -12 2 -5 -16 -65 -40 -135 -49 -138 -53
-166 -29 -190 24 -24 45 -20 39 7 -4 14 14 79 45 170 28 81 48 152 45 157 -6
10 -31 12 -53 3z"/>
<path d="M7421 3036 c-6 -7 -22 -46 -36 -85 -13 -40 -38 -98 -55 -129 -17 -32
-26 -58 -20 -60 5 -2 10 -14 10 -26 0 -27 18 -46 42 -46 14 0 17 5 13 23 -4
14 14 79 45 170 28 81 48 151 45 157 -9 14 -31 12 -44 -4z"/>
<path d="M7856 3021 c11 -23 15 -63 15 -153 0 -124 -15 -207 -47 -269 -8 -17
-13 -33 -11 -36 7 -6 37 40 84 127 38 71 40 80 42 170 1 81 -2 101 -21 140
-18 34 -29 46 -50 48 -27 3 -27 3 -12 -27z"/>
<path d="M8110 3026 c0 -32 18 -43 37 -23 20 20 10 47 -17 47 -15 0 -20 -7
-20 -24z"/>
<path d="M6820 3019 c-88 -53 -160 -154 -160 -227 0 -42 24 -89 51 -97 26 -9
35 0 19 20 -35 42 24 206 102 283 46 46 42 53 -12 21z"/>
<path d="M7667 2574 c-15 -15 -7 -63 12 -74 28 -15 56 -13 43 3 -6 6 -12 25
-14 42 -3 28 -25 44 -41 29z"/>
<path d="M6837 2053 c-13 -12 -7 -51 8 -57 23 -9 47 22 35 45 -11 19 -31 25
-43 12z"/>
<path d="M6332 2038 c-8 -8 -12 -56 -12 -150 0 -115 3 -140 15 -144 26 -10 45
16 45 62 l0 44 50 0 50 0 0 -39 c0 -52 8 -71 30 -71 21 0 30 19 30 66 0 19 5
43 12 53 9 15 9 25 0 46 -7 14 -12 48 -12 74 0 57 -19 81 -44 56 -11 -11 -16
-34 -16 -71 l0 -54 -50 0 -50 0 0 58 c0 51 -11 82 -30 82 -3 0 -11 -5 -18 -12z"/>
<path d="M7307 2034 c-23 -13 -27 -20 -21 -37 4 -12 10 -74 13 -137 6 -106 7
-115 26 -115 16 0 21 8 23 37 5 65 25 67 84 9 29 -28 59 -50 67 -49 27 5 23
35 -8 71 -36 41 -37 48 -11 72 41 37 35 106 -14 147 -27 22 -120 23 -159 2z
m110 -40 c50 -13 31 -86 -24 -97 -33 -6 -43 5 -43 55 0 44 18 55 67 42z"/>
<path d="M8747 2043 c-4 -3 -7 -68 -7 -144 0 -129 1 -139 21 -153 40 -28 45
-14 41 127 -1 72 -5 142 -8 155 -4 21 -32 30 -47 15z"/>
<path d="M5101 2026 c-14 -17 -14 -255 0 -272 16 -19 148 -19 174 0 32 23 3
45 -63 48 l-57 3 -3 111 c-2 101 -5 112 -22 117 -11 3 -24 0 -29 -7z"/>
<path d="M5572 1965 c-56 -40 -45 -102 24 -131 19 -8 34 -18 34 -22 0 -20 -15
-20 -46 -1 -36 22 -54 19 -54 -11 0 -31 48 -61 94 -58 33 3 43 9 59 36 17 30
18 36 6 59 -8 15 -31 34 -51 42 -49 21 -48 31 2 31 32 0 40 4 40 19 0 40 -69
63 -108 36z"/>
<path d="M5385 1956 c-53 -23 -85 -71 -85 -126 0 -40 4 -52 26 -69 22 -17 38
-20 98 -18 69 3 71 4 68 28 -2 13 -6 57 -9 96 -4 60 -8 76 -26 88 -26 18 -33
18 -72 1z m33 -103 c-3 -44 -5 -48 -28 -48 -31 0 -39 35 -16 71 28 42 48 31
44 -23z"/>
<path d="M5793 1951 c-43 -20 -73 -62 -73 -103 0 -32 35 -86 64 -99 33 -15
109 -3 131 21 24 26 12 55 -18 45 -40 -13 -100 -18 -94 -7 4 5 19 12 35 15 40
8 82 45 82 72 0 30 -28 63 -60 70 -14 3 -43 -3 -67 -14z m64 -58 c4 -11 -66
-37 -75 -28 -7 7 10 26 32 35 25 10 38 8 43 -7z"/>
<path d="M6046 1963 c-4 -4 -24 -7 -44 -8 l-37 0 3 -90 c4 -114 8 -127 35
-123 20 3 23 11 27 76 6 82 16 95 67 86 40 -8 55 17 28 46 -18 20 -65 27 -79
13z"/>
<path d="M6670 1951 c-77 -40 -105 -137 -55 -187 22 -22 31 -24 97 -21 71 3
73 4 70 27 -2 14 -6 58 -9 98 -4 59 -9 75 -26 87 -27 19 -35 19 -77 -4z m40
-95 c0 -47 -17 -70 -44 -60 -21 8 -21 62 1 86 28 31 43 22 43 -26z"/>
<path d="M6835 1958 c-3 -8 -4 -59 -3 -114 3 -91 5 -99 23 -99 19 0 20 7 20
110 0 97 -2 110 -18 113 -9 2 -19 -3 -22 -10z"/>
<path d="M7007 1959 c-9 -6 -26 -8 -36 -4 -26 8 -45 -18 -32 -44 6 -11 11 -52
11 -91 0 -56 3 -72 16 -77 28 -10 44 25 44 93 0 69 12 81 64 68 34 -8 46 19
21 46 -20 22 -59 26 -88 9z"/>
<path d="M7633 1950 c-47 -21 -60 -36 -67 -80 -7 -47 13 -101 44 -118 48 -25
150 2 150 41 0 26 -21 30 -63 12 -36 -15 -57 -13 -57 4 0 5 12 11 28 14 39 8
82 45 82 71 0 31 -25 63 -54 68 -14 3 -42 -3 -63 -12z m55 -65 c-20 -19 -71
-29 -66 -13 6 18 48 37 65 31 12 -5 12 -8 1 -18z"/>
<path d="M7789 1948 c-8 -16 -8 -129 1 -206 0 -2 10 -2 23 0 20 3 22 9 25 75
3 74 17 101 47 89 12 -4 15 -23 15 -81 0 -58 3 -77 15 -81 30 -12 44 15 47 89
3 64 5 72 23 72 18 0 20 -8 23 -72 3 -78 19 -106 47 -83 11 9 15 33 15 87 0
69 -2 77 -29 104 -30 29 -74 39 -87 18 -4 -6 -17 -8 -33 -4 -14 3 -47 8 -74
10 -39 3 -49 0 -58 -17z"/>
<path d="M8316 1952 c-4 -10 11 -60 33 -113 59 -141 78 -135 132 39 16 49 18
67 9 78 -19 22 -44 1 -58 -50 -6 -25 -16 -46 -20 -46 -5 0 -17 19 -28 41 -29
66 -57 86 -68 51z"/>
<path d="M8580 1947 c-51 -34 -73 -70 -73 -118 0 -34 6 -47 27 -65 22 -20 37
-23 96 -22 78 2 89 12 65 58 -8 16 -15 55 -15 89 0 33 -5 63 -10 66 -26 16
-59 13 -90 -8z m50 -92 c0 -52 -27 -77 -54 -49 -21 21 -20 36 5 68 32 40 49
34 49 -19z"/>
<path d="M8131 1930 c-33 -33 -47 -81 -36 -128 20 -92 142 -88 182 5 46 111
-65 204 -146 123z m97 -63 c5 -39 -23 -79 -51 -75 -17 2 -23 11 -25 35 -5 47
14 75 46 71 21 -2 28 -9 30 -31z"/>
</g>
</svg>
